<svg width="16" height="18" viewBox="0 0 16 18" fill="none" xmlns="http://www.w3.org/2000/svg">
<path d="M14.7676 7.5H1.26758M11.0176 1.5V4.5M5.01758 1.5V4.5M4.86758 16.5H11.1676C12.4277 16.5 13.0578 16.5 13.5391 16.2548C13.9624 16.039 14.3066 15.6948 14.5223 15.2715C14.7676 14.7902 14.7676 14.1601 14.7676 12.9V6.6C14.7676 5.33988 14.7676 4.70982 14.5223 4.22852C14.3066 3.80516 13.9624 3.46095 13.5391 3.24524C13.0578 3 12.4277 3 11.1676 3H4.86758C3.60746 3 2.9774 3 2.4961 3.24524C2.07273 3.46095 1.72853 3.80516 1.51281 4.22852C1.26758 4.70982 1.26758 5.33988 1.26758 6.6V12.9C1.26758 14.1601 1.26758 14.7902 1.51281 15.2715C1.72853 15.6948 2.07273 16.039 2.4961 16.2548C2.9774 16.5 3.60746 16.5 4.86758 16.5Z" stroke="#57606A" stroke-width="2" stroke-linecap="round" stroke-linejoin="round"/>
</svg>
