<svg width="18" height="18" viewBox="0 0 18 18" fill="none" xmlns="http://www.w3.org/2000/svg">
<path d="M3.76758 10.7148C2.37906 11.3273 1.51758 12.1809 1.51758 13.125C1.51758 14.989 4.87544 16.5 9.01758 16.5C13.1597 16.5 16.5176 14.989 16.5176 13.125C16.5176 12.1809 15.6561 11.3273 14.2676 10.7148M13.5176 6C13.5176 9.04778 10.1426 10.5 9.01758 12.75C7.89258 10.5 4.51758 9.04778 4.51758 6C4.51758 3.51472 6.5323 1.5 9.01758 1.5C11.5029 1.5 13.5176 3.51472 13.5176 6ZM9.76758 6C9.76758 6.41421 9.43179 6.75 9.01758 6.75C8.60336 6.75 8.26758 6.41421 8.26758 6C8.26758 5.58579 8.60336 5.25 9.01758 5.25C9.43179 5.25 9.76758 5.58579 9.76758 6Z" stroke="#57606A" stroke-width="2" stroke-linecap="round" stroke-linejoin="round"/>
</svg>
